<?xml version="1.0" encoding="utf-8"?>
<!-- Generator: Adobe Illustrator 16.0.0, SVG Export Plug-In . SVG Version: 6.00 Build 0)  -->
<!DOCTYPE svg PUBLIC "-//W3C//DTD SVG 1.1//EN" "http://www.w3.org/Graphics/SVG/1.1/DTD/svg11.dtd">
<svg version="1.1" id="wrap_svg" xmlns="http://www.w3.org/2000/svg" xmlns:xlink="http://www.w3.org/1999/xlink" x="0px"
	 y="0px" width="1984.25px" height="850.39px" viewBox="0 0 1984.25 850.39" style="enable-background:new 0 0 1984.25 850.39;"
	 xml:space="preserve">
<style type="text/css">
<![CDATA[
	.st0{font-family:'AdobeMyungjoStd-Medium-KSCpc-EUC-H';}
	.default{fill:#8E8E8E;}
	.elv{fill:#F49F3A;}
	.st3{fill:#F4A14F;}
	.st4{font-size:66.7208;}
	.st5{fill:none;}
	.st6{fill:#41AF35;}
]]>
</style>
<symbol  id="화살표_29" viewBox="-22.859 -9.756 45.719 19.511">
	<polygon class="st5" points="-22.859,-9.756 22.859,-9.756 22.859,9.755 -22.859,9.755 	"/>
	<g>
		<polygon class="st6" points="22.859,0.002 -0.299,-9.756 1.826,-4.756 -22.859,-4.756 -22.859,4.756 1.826,4.756 -0.299,9.755 		
			"/>
	</g>
</symbol>
<g id="wrap_g">
	<g>
		<g><rect x="401.278" y="205.162" class="default" width="24.268" height="63.981" id="box2_0"></rect></g>
		<g><rect x="428.535" y="205.162" class="default" width="24.266" height="63.981" id="box2_1"></rect></g>
		<g><rect x="374.022" y="272.658" class="default" width="24.264" height="63.979" id="box4_0"></rect></g>
		<g><rect x="401.278" y="272.658" class="default" width="24.268" height="63.979" id="box4_1"></rect></g>
		<g><rect x="428.535" y="272.658" class="default" width="24.266" height="63.979" id="box4_2"></rect></g>
		<g><rect x="346.764" y="340.146" class="default" width="24.268" height="63.981" id="box6_0"></rect></g>
		<g><rect x="374.022" y="340.146" class="default" width="24.264" height="63.981" id="box6_1"></rect></g>
		<g><rect x="401.278" y="340.146" class="default" width="24.268" height="63.981" id="box6_2"></rect></g>
		<g><rect x="428.535" y="340.146" class="default" width="24.266" height="63.981" id="box6_3"></rect></g>
	</g>
	<g>
		<g><rect x="473.282" y="137.672" class="default" width="24.266" height="63.981" id="box0_0"></rect></g>
		<g><rect x="500.54" y="137.672" class="default" width="24.267" height="63.981" id="box0_1"></rect></g>
		<g><rect x="527.796" y="137.672" class="default" width="24.268" height="63.981" id="box0_2"></rect></g>
		<g><rect x="555.053" y="137.672" class="default" width="24.268" height="63.981" id="box0_3"></rect></g>
		<g><rect x="473.282" y="205.162" class="default" width="24.266" height="63.981" id="box2_2"></rect></g>
		<g><rect x="500.54" y="205.162" class="default" width="24.267" height="63.981" id="box2_3"></rect></g>
		<g><rect x="527.796" y="205.162" class="default" width="24.268" height="63.981" id="box2_4"></rect></g>
		<g><rect x="555.053" y="205.162" class="default" width="24.268" height="63.981" id="box2_5"></rect></g>
		<g><rect x="473.282" y="272.658" class="default" width="24.266" height="63.979" id="box4_3"></rect></g>
		<g><rect x="500.54" y="272.658" class="default" width="24.267" height="63.979" id="box4_4"></rect></g>
		<g><rect x="527.796" y="272.658" class="default" width="24.268" height="63.979" id="box4_5"></rect></g>
		<g><rect x="555.053" y="272.658" class="default" width="24.268" height="63.979" id="box4_6"></rect></g>
		<g><rect x="473.282" y="340.146" class="default" width="24.266" height="63.981" id="box6_4"></rect></g>
		<g><rect x="500.54" y="340.146" class="default" width="24.267" height="63.981" id="box6_5"></rect></g>
		<g><rect x="527.796" y="340.146" class="default" width="24.268" height="63.981" id="box6_6"></rect></g>
		<g><rect x="555.053" y="340.146" class="default" width="24.268" height="63.981" id="box6_7"></rect></g>
	</g>
	<g>
		<g><rect x="599.801" y="137.672" class="default" width="24.267" height="63.981" id="box0_4"></rect></g>
		<g><rect x="627.057" y="137.672" class="default" width="24.269" height="63.981" id="box0_5"></rect></g>
		<g><rect x="654.313" y="137.672" class="default" width="24.267" height="63.981" id="box0_6"></rect></g>
		<g><rect x="681.572" y="137.672" class="default" width="24.266" height="63.981" id="box0_7"></rect></g>
		<g><rect x="599.801" y="205.162" class="default" width="24.267" height="63.981" id="box2_6"></rect></g>
		<g><rect x="627.057" y="205.162" class="default" width="24.269" height="63.981" id="box2_7"></rect></g>
		<g><rect x="654.313" y="205.162" class="default" width="24.267" height="63.981" id="box2_8"></rect></g>
		<g><rect x="681.572" y="205.162" class="default" width="24.266" height="63.981" id="box2_9"></rect></g>
		<g><rect x="599.801" y="272.658" class="default" width="24.267" height="63.979" id="box4_7"></rect></g>
		<g><rect x="627.057" y="272.658" class="default" width="24.269" height="63.979" id="box4_8"></rect></g>
		<g><rect x="654.313" y="272.658" class="default" width="24.267" height="63.979" id="box4_9"></rect></g>
		<g><rect x="681.572" y="272.658" class="default" width="24.266" height="63.979" id="box4_10"></rect></g>
		<g><rect x="599.801" y="340.146" class="default" width="24.267" height="63.981" id="box6_8"></rect></g>
		<g><rect x="627.057" y="340.146" class="default" width="24.269" height="63.981" id="box6_9"></rect></g>
		<g><rect x="654.313" y="340.146" class="default" width="24.267" height="63.981" id="box6_10"></rect></g>
		<g><rect x="681.572" y="340.146" class="default" width="24.266" height="63.981" id="box6_11"></rect></g>
	</g>
	<g>
		<g><rect x="726.318" y="137.672" class="default" width="24.266" height="63.981" id="box0_8"></rect></g>
		<g><rect x="753.575" y="137.672" class="default" width="24.267" height="63.981" id="box0_9"></rect></g>
		<g><rect x="780.833" y="137.672" class="default" width="24.266" height="63.981" id="box0_10"></rect></g>
		<g><rect x="808.089" y="137.672" class="default" width="24.268" height="63.981" id="box0_11"></rect></g>
		<g><rect x="726.318" y="205.162" class="default" width="24.266" height="63.981" id="box2_10"></rect></g>
		<g><rect x="753.575" y="205.162" class="default" width="24.267" height="63.981" id="box2_11"></rect></g>
		<g><rect x="780.833" y="205.162" class="default" width="24.266" height="63.981" id="box2_12"></rect></g>
		<g><rect x="808.089" y="205.162" class="default" width="24.268" height="63.981" id="box2_13"></rect></g>
		<g><rect x="726.318" y="272.658" class="default" width="24.266" height="63.979" id="box4_11"></rect></g>
		<g><rect x="753.575" y="272.658" class="default" width="24.267" height="63.979" id="box4_12"></rect></g>
		<g><rect x="780.833" y="272.658" class="default" width="24.266" height="63.979" id="box4_13"></rect></g>
		<g><rect x="808.089" y="272.658" class="default" width="24.268" height="63.979" id="box4_14"></rect></g>
		<g><rect x="726.318" y="340.146" class="default" width="24.266" height="63.981" id="box6_12"></rect></g>
		<g><rect x="753.575" y="340.146" class="default" width="24.267" height="63.981" id="box6_13"></rect></g>
		<g><rect x="780.833" y="340.146" class="default" width="24.266" height="63.981" id="box6_14"></rect></g>
		<g><rect x="808.089" y="340.146" class="default" width="24.268" height="63.981" id="box6_15"></rect></g>
	</g>
	<g>
		<g><rect x="854.331" y="137.672" class="default" width="24.265" height="63.981" id="box0_12"></rect></g>
		<g><rect x="908.845" y="137.672" class="elv" width="62.155" height="63.981" id="box0_13"></rect></g>
		<g><rect x="854.331" y="205.162" class="default" width="24.265" height="63.981" id="box2_14"></rect></g>
		<g><rect x="908.845" y="205.162" class="default" width="24.266" height="63.981" id="box2_15"></rect></g>
		<g><rect x="936.103" y="205.162" class="default" width="24.265" height="63.981" id="box2_16"></rect></g>
		<g><rect x="854.331" y="272.658" class="default" width="24.265" height="63.979" id="box4_15"></rect></g>
		<g><rect x="908.845" y="272.658" class="default" width="24.266" height="63.979" id="box4_16"></rect></g>
		<g><rect x="936.103" y="272.658" class="default" width="24.265" height="63.979" id="box4_17"></rect></g>
		<g><rect x="854.331" y="340.146" class="default" width="24.265" height="63.981" id="box6_16"></rect></g>
		<g><rect x="908.845" y="340.146" class="default" width="24.266" height="63.981" id="box6_17"></rect></g>
		<g><rect x="936.103" y="340.146" class="default" width="24.265" height="63.981" id="box6_18"></rect></g>
	</g>
	<g>
		<g><rect x="980.85" y="137.672" class="default" width="24.266" height="63.981" id="box0_14"></rect></g>
		<g><rect x="1008.104" y="137.672" class="default" width="24.269" height="63.981" id="box0_15"></rect></g>
		<g><rect x="1035.362" y="137.672" class="default" width="24.268" height="63.981" id="box0_16"></rect></g>
		<g><rect x="1062.621" y="137.672" class="default" width="24.264" height="63.981" id="box0_17"></rect></g>
		<g><rect x="980.85" y="205.162" class="default" width="24.266" height="63.981" id="box2_17"></rect></g>
		<g><rect x="1008.104" y="205.162" class="default" width="24.269" height="63.981" id="box2_18"></rect></g>
		<g><rect x="1035.362" y="205.162" class="default" width="24.268" height="63.981" id="box2_19"></rect></g>
		<g><rect x="1062.621" y="205.162" class="default" width="24.264" height="63.981" id="box2_20"></rect></g>
		<g><rect x="980.85" y="272.658" class="default" width="24.266" height="63.979" id="box4_18"></rect></g>
		<g><rect x="1008.104" y="272.658" class="default" width="24.269" height="63.979" id="box4_19"></rect></g>
		<g><rect x="1035.362" y="272.658" class="default" width="24.268" height="63.979" id="box4_20"></rect></g>
		<g><rect x="1062.621" y="272.658" class="default" width="24.264" height="63.979" id="box4_21"></rect></g>
		<g><rect x="980.85" y="340.146" class="default" width="24.266" height="63.981" id="box6_19"></rect></g>
		<g><rect x="1008.104" y="340.146" class="default" width="24.269" height="63.981" id="box6_20"></rect></g>
		<g><rect x="1035.362" y="340.146" class="default" width="24.268" height="63.981" id="box6_21"></rect></g>
		<g><rect x="1062.621" y="340.146" class="default" width="24.264" height="63.981" id="box6_22"></rect></g>
	</g>
	<g>
		<g><rect x="1107.366" y="137.672" class="default" width="24.267" height="63.981" id="box0_18"></rect></g>
		<g><rect x="1134.623" y="137.672" class="default" width="24.268" height="63.981" id="box0_19"></rect></g>
		<g><rect x="1161.88" y="137.672" class="default" width="24.27" height="63.981" id="box0_20"></rect></g>
		<g><rect x="1189.139" y="137.672" class="default" width="24.265" height="63.981" id="box0_21"></rect></g>
		<g><rect x="1107.366" y="205.162" class="default" width="24.267" height="63.981" id="box2_21"></rect></g>
		<g><rect x="1134.623" y="205.162" class="default" width="24.268" height="63.981" id="box2_22"></rect></g>
		<g><rect x="1161.88" y="205.162" class="default" width="24.27" height="63.981" id="box2_23"></rect></g>
		<g><rect x="1189.139" y="205.162" class="default" width="24.265" height="63.981" id="box2_24"></rect></g>
		<g><rect x="1107.366" y="272.658" class="default" width="24.267" height="63.979" id="box4_22"></rect></g>
		<g><rect x="1134.623" y="272.658" class="default" width="24.268" height="63.979" id="box4_23"></rect></g>
		<g><rect x="1161.88" y="272.658" class="default" width="24.27" height="63.979" id="box4_24"></rect></g>
		<g><rect x="1189.139" y="272.658" class="default" width="24.265" height="63.979" id="box4_25"></rect></g>
		<g><rect x="1107.366" y="340.146" class="default" width="24.267" height="63.981" id="box6_23"></rect></g>
		<g><rect x="1134.623" y="340.146" class="default" width="24.268" height="63.981" id="box6_24"></rect></g>
		<g><rect x="1161.88" y="340.146" class="default" width="24.27" height="63.981" id="box6_25"></rect></g>
		<g><rect x="1189.139" y="340.146" class="default" width="24.265" height="63.981" id="box6_26"></rect></g>
	</g>
	<g>
		<g><rect x="1233.885" y="137.672" class="default" width="24.265" height="63.981" id="box0_22"></rect></g>
		<g><rect x="1261.142" y="137.672" class="default" width="24.268" height="63.981" id="box0_23"></rect></g>
		<g><rect x="1288.397" y="137.672" class="default" width="24.269" height="63.981" id="box0_24"></rect></g>
		<g><rect x="1315.654" y="137.672" class="default" width="24.269" height="63.981" id="box0_25"></rect></g>
		<g><rect x="1233.885" y="205.162" class="default" width="24.265" height="63.981" id="box2_25"></rect></g>
		<g><rect x="1261.142" y="205.162" class="default" width="24.268" height="63.981" id="box2_26"></rect></g>
		<g><rect x="1288.397" y="205.162" class="default" width="24.269" height="63.981" id="box2_27"></rect></g>
		<g><rect x="1315.654" y="205.162" class="default" width="24.269" height="63.981" id="box2_28"></rect></g>
		<g><rect x="1233.885" y="272.658" class="default" width="24.265" height="63.979" id="box4_26"></rect></g>
		<g><rect x="1261.142" y="272.658" class="default" width="24.268" height="63.979" id="box4_27"></rect></g>
		<g><rect x="1288.397" y="272.658" class="default" width="24.269" height="63.979" id="box4_28"></rect></g>
		<g><rect x="1315.654" y="272.658" class="default" width="24.269" height="63.979" id="box4_29"></rect></g>
		<g><rect x="1233.885" y="340.146" class="default" width="24.265" height="63.981" id="box6_27"></rect></g>
		<g><rect x="1261.142" y="340.146" class="default" width="24.268" height="63.981" id="box6_28"></rect></g>
		<g><rect x="1288.397" y="340.146" class="default" width="24.269" height="63.981" id="box6_29"></rect></g>
		<g><rect x="1315.654" y="340.146" class="default" width="24.269" height="63.981" id="box6_30"></rect></g>
	</g>
	<g>
		<g><rect x="1360.401" y="137.672" class="default" width="24.268" height="63.981" id="box0_26"></rect></g>
		<g><rect x="1387.66" y="137.672" class="default" width="24.265" height="63.981" id="box0_27"></rect></g>
		<g><rect x="1414.919" y="137.672" class="default" width="24.264" height="63.981" id="box0_28"></rect></g>
		<g><rect x="1442.173" y="137.672" class="default" width="24.268" height="63.981" id="box0_29"></rect></g>
		<g><rect x="1360.401" y="205.162" class="default" width="24.268" height="63.981" id="box2_29"></rect></g>
		<g><rect x="1387.66" y="205.162" class="default" width="24.265" height="63.981" id="box2_30"></rect></g>
		<g><rect x="1414.919" y="205.162" class="default" width="24.264" height="63.981" id="box2_31"></rect></g>
		<g><rect x="1442.173" y="205.162" class="default" width="24.268" height="63.981" id="box2_32"></rect></g>
		<g><rect x="1360.401" y="272.658" class="default" width="24.268" height="63.979" id="box4_30"></rect></g>
		<g><rect x="1387.66" y="272.658" class="default" width="24.265" height="63.979" id="box4_31"></rect></g>
		<g><rect x="1414.919" y="272.658" class="default" width="24.264" height="63.979" id="box4_32"></rect></g>
		<g><rect x="1442.173" y="272.658" class="default" width="24.268" height="63.979" id="box4_33"></rect></g>
		<g><rect x="1360.401" y="340.146" class="default" width="24.268" height="63.981" id="box6_31"></rect></g>
		<g><rect x="1387.66" y="340.146" class="default" width="24.265" height="63.981" id="box6_32"></rect></g>
		<g><rect x="1414.919" y="340.146" class="default" width="24.264" height="63.981" id="box6_33"></rect></g>
		<g><rect x="1442.173" y="340.146" class="default" width="24.268" height="63.981" id="box6_34"></rect></g>
	</g>
	<g>
		<g><rect x="1486.919" y="137.672" class="default" width="24.268" height="63.981" id="box0_30"></rect></g>
		<g><rect x="1514.175" y="137.672" class="default" width="24.27" height="63.981" id="box0_31"></rect></g>
		<g><rect x="1541.435" y="137.672" class="default" width="24.267" height="63.981" id="box0_32"></rect></g>
		<g><rect x="1568.688" y="137.672" class="default" width="24.27" height="63.981" id="box0_33"></rect></g>
		<g><rect x="1486.919" y="205.162" class="default" width="24.268" height="63.981" id="box2_33"></rect></g>
		<g><rect x="1514.175" y="205.162" class="default" width="24.27" height="63.981" id="box2_34"></rect></g>
		<g><rect x="1541.435" y="205.162" class="default" width="24.267" height="63.981" id="box2_35"></rect></g>
		<g><rect x="1568.688" y="205.162" class="default" width="24.27" height="63.981" id="box2_36"></rect></g>
		<g><rect x="1486.919" y="272.658" class="default" width="24.268" height="63.979" id="box4_34"></rect></g>
		<g><rect x="1514.175" y="272.658" class="default" width="24.27" height="63.979" id="box4_35"></rect></g>
		<g><rect x="1541.435" y="272.658" class="default" width="24.267" height="63.979" id="box4_36"></rect></g>
		<g><rect x="1568.688" y="272.658" class="default" width="24.27" height="63.979" id="box4_37"></rect></g>
		<g><rect x="1486.919" y="340.146" class="default" width="24.268" height="63.981" id="box6_35"></rect></g>
		<g><rect x="1514.175" y="340.146" class="default" width="24.27" height="63.981" id="box6_36"></rect></g>
		<g><rect x="1541.435" y="340.146" class="default" width="24.267" height="63.981" id="box6_37"></rect></g>
		<g><rect x="1568.688" y="340.146" class="default" width="24.27" height="63.981" id="box6_38"></rect></g>
	</g>
	<g>
		<g><rect x="1613.438" y="141.185" class="default" width="24.266" height="63.981" id="box1_0"></rect></g>
		<g><rect x="1613.438" y="208.675" class="default" width="24.266" height="63.981" id="box3_0"></rect></g>
		<g><rect x="1613.438" y="276.17" class="default" width="24.266" height="63.98" id="box5_0"></rect></g>
		<g><rect x="1640.692" y="276.17" class="default" width="24.269" height="63.98" id="box5_1"></rect></g>
		<g><rect x="1667.952" y="276.17" class="default" width="24.265" height="63.98" id="box5_2"></rect></g>
		<g><rect x="1695.209" y="276.17" class="default" width="24.267" height="63.98" id="box5_3"></rect></g>
	</g>
	<g>
		<g><rect x="220.247" y="445.535" class="default" width="24.268" height="63.98" id="box7_0"></rect></g>
		<g><rect x="247.502" y="445.535" class="default" width="24.268" height="63.98" id="box7_1"></rect></g>
		<g><rect x="274.761" y="445.535" class="default" width="24.269" height="63.98" id="box7_2"></rect></g>
		<g><rect x="302.017" y="445.535" class="default" width="24.267" height="63.98" id="box7_3"></rect></g>
		<g><rect x="220.247" y="513.023" class="default" width="24.268" height="63.982" id="box8_0"></rect></g>
		<g><rect x="247.502" y="513.023" class="default" width="24.268" height="63.982" id="box8_1"></rect></g>
		<g><rect x="274.761" y="513.023" class="default" width="24.269" height="63.982" id="box8_2"></rect></g>
		<g><rect x="302.017" y="513.023" class="default" width="24.267" height="63.982" id="box8_3"></rect></g>
		<g><rect x="220.247" y="580.519" class="default" width="24.268" height="63.98" id="box9_0"></rect></g>
		<g><rect x="247.502" y="580.519" class="default" width="24.268" height="63.98" id="box9_1"></rect></g>
		<g><rect x="274.761" y="580.519" class="default" width="24.269" height="63.98" id="box9_2"></rect></g>
		<g><rect x="302.017" y="580.519" class="default" width="24.267" height="63.98" id="box9_3"></rect></g>
		<g><rect x="220.247" y="648.009" class="default" width="24.268" height="63.98" id="box11_0"></rect></g>
		<g><rect x="247.502" y="648.009" class="default" width="24.268" height="63.98" id="box11_1"></rect></g>
		<g><rect x="274.761" y="648.009" class="default" width="24.269" height="63.98" id="box11_2"></rect></g>
		<g><rect x="302.017" y="648.009" class="default" width="24.267" height="63.98" id="box11_3"></rect></g>
	</g>
	<g>
		<g><rect x="346.764" y="445.535" class="default" width="24.268" height="63.98" id="box7_4"></rect></g>
		<g><rect x="374.022" y="445.535" class="default" width="24.264" height="63.98" id="box7_5"></rect></g>
		<g><rect x="401.278" y="445.535" class="default" width="24.268" height="63.98" id="box7_6"></rect></g>
		<g><rect x="428.535" y="445.535" class="default" width="24.266" height="63.98" id="box7_7"></rect></g>
		<g><rect x="346.764" y="513.023" class="default" width="24.268" height="63.982" id="box8_4"></rect></g>
		<g><rect x="374.022" y="513.023" class="default" width="24.264" height="63.982" id="box8_5"></rect></g>
		<g><rect x="401.278" y="513.023" class="default" width="24.268" height="63.982" id="box8_6"></rect></g>
		<g><rect x="428.535" y="513.023" class="default" width="24.266" height="63.982" id="box8_7"></rect></g>
		<g><rect x="346.764" y="580.519" class="default" width="24.268" height="63.98" id="box9_4"></rect></g>
		<g><rect x="374.022" y="580.519" class="default" width="24.264" height="63.98" id="box9_5"></rect></g>
		<g><rect x="401.278" y="580.519" class="default" width="24.268" height="63.98" id="box9_6"></rect></g>
		<g><rect x="428.535" y="580.519" class="default" width="24.266" height="63.98" id="box9_7"></rect></g>
		<g><rect x="346.764" y="648.009" class="default" width="24.268" height="63.98" id="box11_4"></rect></g>
		<g><rect x="374.022" y="648.009" class="default" width="24.264" height="63.98" id="box11_5"></rect></g>
		<g><rect x="401.278" y="648.009" class="default" width="24.268" height="63.98" id="box11_6"></rect></g>
		<g><rect x="428.535" y="648.009" class="default" width="24.266" height="63.98" id="box11_7"></rect></g>
	</g>
	<g>
		<g><rect x="473.282" y="445.535" class="default" width="24.266" height="63.98" id="box7_8"></rect></g>
		<g><rect x="500.54" y="445.535" class="default" width="24.267" height="63.98" id="box7_9"></rect></g>
		<g><rect x="555.053" y="445.535" class="default" width="24.268" height="63.98" id="box7_10"></rect></g>
		<g><rect x="473.282" y="513.023" class="default" width="24.266" height="63.982" id="box8_8"></rect></g>
		<g><rect x="500.54" y="513.023" class="default" width="24.267" height="63.982" id="box8_9"></rect></g>
		<g><rect x="555.053" y="513.023" class="default" width="24.268" height="63.982" id="box8_10"></rect></g>
		<g><rect x="491.687" y="604.505" class="st3" width="72.22" height="79.99" id="box10_0"></rect></g>
	</g>
	<g>
		<g><rect x="599.801" y="445.535" class="default" width="24.267" height="63.98" id="box7_11"></rect></g>
		<g><rect x="627.057" y="445.535" class="default" width="24.269" height="63.98" id="box7_12"></rect></g>
		<g><rect x="654.313" y="445.535" class="default" width="24.267" height="63.98" id="box7_13"></rect></g>
		<g><rect x="681.572" y="445.535" class="default" width="24.266" height="63.98" id="box7_14"></rect></g>
		<g><rect x="599.801" y="513.023" class="default" width="24.267" height="63.982" id="box8_11"></rect></g>
		<g><rect x="627.057" y="513.023" class="default" width="24.269" height="63.982" id="box8_12"></rect></g>
		<g><rect x="654.313" y="513.023" class="default" width="24.267" height="63.982" id="box8_13"></rect></g>
		<g><rect x="681.572" y="513.023" class="default" width="24.266" height="63.982" id="box8_14"></rect></g>
		<g><rect x="599.801" y="580.519" class="default" width="24.267" height="63.98" id="box9_8"></rect></g>
		<g><rect x="627.057" y="580.519" class="default" width="24.269" height="63.98" id="box9_9"></rect></g>
		<g><rect x="654.313" y="580.519" class="default" width="24.267" height="63.98" id="box9_10"></rect></g>
		<g><rect x="681.572" y="580.519" class="default" width="24.266" height="63.98" id="box9_11"></rect></g>
		<g><rect x="599.801" y="648.009" class="default" width="24.267" height="63.98" id="box11_8"></rect></g>
		<g><rect x="627.057" y="648.009" class="default" width="24.269" height="63.98" id="box11_9"></rect></g>
		<g><rect x="654.313" y="648.009" class="default" width="24.267" height="63.98" id="box11_10"></rect></g>
		<g><rect x="681.572" y="648.009" class="default" width="24.266" height="63.98" id="box11_11"></rect></g>
	</g>
	<g>
		<g><rect x="726.318" y="445.535" class="default" width="24.266" height="63.98" id="box7_15"></rect></g>
		<g><rect x="753.575" y="445.535" class="default" width="24.267" height="63.98" id="box7_16"></rect></g>
		<g><rect x="780.833" y="445.535" class="default" width="24.266" height="63.98" id="box7_17"></rect></g>
		<g><rect x="808.089" y="445.535" class="default" width="24.268" height="63.98" id="box7_18"></rect></g>
		<g><rect x="726.318" y="513.023" class="default" width="24.266" height="63.982" id="box8_15"></rect></g>
		<g><rect x="753.575" y="513.023" class="default" width="24.267" height="63.982" id="box8_16"></rect></g>
		<g><rect x="780.833" y="513.023" class="default" width="24.266" height="63.982" id="box8_17"></rect></g>
		<g><rect x="808.089" y="513.023" class="default" width="24.268" height="63.982" id="box8_18"></rect></g>
		<g><rect x="726.318" y="580.519" class="default" width="24.266" height="63.98" id="box9_12"></rect></g>
		<g><rect x="753.575" y="580.519" class="default" width="24.267" height="63.98" id="box9_13"></rect></g>
		<g><rect x="780.833" y="580.519" class="default" width="24.266" height="63.98" id="box9_14"></rect></g>
		<g><rect x="808.089" y="580.519" class="default" width="24.268" height="63.98" id="box9_15"></rect></g>
		<g><rect x="726.318" y="648.009" class="default" width="24.266" height="63.98" id="box11_12"></rect></g>
		<g><rect x="753.575" y="648.009" class="default" width="24.267" height="63.98" id="box11_13"></rect></g>
		<g><rect x="780.833" y="648.009" class="default" width="24.266" height="63.98" id="box11_14"></rect></g>
		<g><rect x="808.089" y="648.009" class="default" width="24.268" height="63.98" id="box11_15"></rect></g>
	</g>
	<g>
		<g><rect x="854.331" y="445.535" class="default" width="24.265" height="63.98" id="box7_19"></rect></g>
		<g><rect x="881.587" y="445.535" class="default" width="24.268" height="63.98" id="box7_20"></rect></g>
		<g><rect x="908.845" y="445.535" class="default" width="24.266" height="63.98" id="box7_21"></rect></g>
		<g><rect x="936.103" y="445.535" class="default" width="24.265" height="63.98" id="box7_22"></rect></g>
		<g><rect x="854.331" y="513.023" class="default" width="24.265" height="63.982" id="box8_19"></rect></g>
		<g><rect x="881.587" y="513.023" class="default" width="24.268" height="63.982" id="box8_20"></rect></g>
		<g><rect x="908.845" y="513.023" class="default" width="24.266" height="63.982" id="box8_21"></rect></g>
		<g><rect x="936.103" y="513.023" class="default" width="24.265" height="63.982" id="box8_22"></rect></g>
		<g><rect x="854.331" y="580.519" class="default" width="24.265" height="63.98" id="box9_16"></rect></g>
		<g><rect x="881.587" y="580.519" class="default" width="24.268" height="63.98" id="box9_17"></rect></g>
		<g><rect x="908.845" y="580.519" class="default" width="24.266" height="63.98" id="box9_18"></rect></g>
		<g><rect x="936.103" y="580.519" class="default" width="24.265" height="63.98" id="box9_19"></rect></g>
		<g><rect x="854.331" y="648.009" class="default" width="24.265" height="63.98" id="box11_16"></rect></g>
		<g><rect x="881.587" y="648.009" class="default" width="24.268" height="63.98" id="box11_17"></rect></g>
		<g><rect x="908.845" y="648.009" class="default" width="24.266" height="63.98" id="box11_18"></rect></g>
		<g><rect x="936.103" y="648.009" class="default" width="24.265" height="63.98" id="box11_19"></rect></g>
	</g>
	<g>
		<g><rect x="980.85" y="445.535" class="default" width="24.266" height="63.98" id="box7_23"></rect></g>
		<g><rect x="1008.104" y="445.535" class="default" width="24.269" height="63.98" id="box7_24"></rect></g>
		<g><rect x="1035.362" y="445.535" class="default" width="24.268" height="63.98" id="box7_25"></rect></g>
		<g><rect x="1062.621" y="445.535" class="default" width="24.264" height="63.98" id="box7_26"></rect></g>
		<g><rect x="980.85" y="513.023" class="default" width="24.266" height="63.982" id="box8_23"></rect></g>
		<g><rect x="1008.104" y="513.023" class="default" width="24.269" height="63.982" id="box8_24"></rect></g>
		<g><rect x="1035.362" y="513.023" class="default" width="24.268" height="63.982" id="box8_25"></rect></g>
		<g><rect x="1062.621" y="513.023" class="default" width="24.264" height="63.982" id="box8_26"></rect></g>
		<g><rect x="980.85" y="580.519" class="default" width="24.266" height="63.98" id="box9_20"></rect></g>
		<g><rect x="1008.104" y="580.519" class="default" width="24.269" height="63.98" id="box9_21"></rect></g>
		<g><rect x="1035.362" y="580.519" class="default" width="24.268" height="63.98" id="box9_22"></rect></g>
		<g><rect x="1062.621" y="580.519" class="default" width="24.264" height="63.98" id="box9_23"></rect></g>
		<g><rect x="980.85" y="648.009" class="default" width="24.266" height="63.98" id="box11_20"></rect></g>
		<g><rect x="1008.104" y="648.009" class="default" width="24.269" height="63.98" id="box11_21"></rect></g>
		<g><rect x="1035.362" y="648.009" class="default" width="24.268" height="63.98" id="box11_22"></rect></g>
		<g><rect x="1062.621" y="648.009" class="default" width="24.264" height="63.98" id="box11_23"></rect></g>
	</g>
	<g>
		<g><rect x="1107.366" y="445.535" class="default" width="24.267" height="63.98" id="box7_27"></rect></g>
		<g><rect x="1134.623" y="445.535" class="default" width="24.268" height="63.98" id="box7_28"></rect></g>
		<g><rect x="1161.88" y="445.535" class="default" width="24.27" height="63.98" id="box7_29"></rect></g>
		<g><rect x="1189.139" y="445.535" class="default" width="24.265" height="63.98" id="box7_30"></rect></g>
		<g><rect x="1107.366" y="513.023" class="default" width="24.267" height="63.982" id="box8_27"></rect></g>
		<g><rect x="1134.623" y="513.023" class="default" width="24.268" height="63.982" id="box8_28"></rect></g>
		<g><rect x="1161.88" y="513.023" class="default" width="24.27" height="63.982" id="box8_29"></rect></g>
		<g><rect x="1189.139" y="513.023" class="default" width="24.265" height="63.982" id="box8_30"></rect></g>
		<g><rect x="1107.366" y="580.519" class="default" width="24.267" height="63.98" id="box9_24"></rect></g>
		<g><rect x="1134.623" y="580.519" class="default" width="24.268" height="63.98" id="box9_25"></rect></g>
		<g><rect x="1161.88" y="580.519" class="default" width="24.27" height="63.98" id="box9_26"></rect></g>
		<g><rect x="1189.139" y="580.519" class="default" width="24.265" height="63.98" id="box9_27"></rect></g>
		<g><rect x="1107.366" y="648.009" class="default" width="24.267" height="63.98" id="box11_24"></rect></g>
		<g><rect x="1134.623" y="648.009" class="default" width="24.268" height="63.98" id="box11_25"></rect></g>
		<g><rect x="1161.88" y="648.009" class="default" width="24.27" height="63.98" id="box11_26"></rect></g>
		<g><rect x="1189.139" y="648.009" class="default" width="24.265" height="63.98" id="box11_27"></rect></g>
	</g>
	<g>
		<g><rect x="1233.885" y="445.535" class="default" width="24.265" height="63.98" id="box7_31"></rect></g>
		<g><rect x="1261.142" y="445.535" class="default" width="24.268" height="63.98" id="box7_32"></rect></g>
		<g><rect x="1288.397" y="445.535" class="default" width="24.269" height="63.98" id="box7_33"></rect></g>
		<g><rect x="1315.654" y="445.535" class="default" width="24.269" height="63.98" id="box7_34"></rect></g>
		<g><rect x="1233.885" y="513.023" class="default" width="24.265" height="63.982" id="box8_31"></rect></g>
		<g><rect x="1261.142" y="513.023" class="default" width="24.268" height="63.982" id="box8_32"></rect></g>
		<g><rect x="1288.397" y="513.023" class="default" width="24.269" height="63.982" id="box8_33"></rect></g>
		<g><rect x="1315.654" y="513.023" class="default" width="24.269" height="63.982" id="box8_34"></rect></g>
		<g><rect x="1233.885" y="580.519" class="default" width="24.265" height="63.98" id="box9_28"></rect></g>
		<g><rect x="1261.142" y="580.519" class="default" width="24.268" height="63.98" id="box9_29"></rect></g>
		<g><rect x="1288.397" y="580.519" class="default" width="24.269" height="63.98" id="box9_30"></rect></g>
		<g><rect x="1315.654" y="580.519" class="default" width="24.269" height="63.98" id="box9_31"></rect></g>
		<g><rect x="1233.885" y="648.009" class="default" width="24.265" height="63.98" id="box11_28"></rect></g>
		<g><rect x="1261.142" y="648.009" class="default" width="24.268" height="63.98" id="box11_29"></rect></g>
		<g><rect x="1288.397" y="648.009" class="default" width="24.269" height="63.98" id="box11_30"></rect></g>
		<g><rect x="1315.654" y="648.009" class="default" width="24.269" height="63.98" id="box11_31"></rect></g>
	</g>
	<g>
		<g><rect x="1360.401" y="445.535" class="default" width="24.268" height="63.98" id="box7_35"></rect></g>
		<g><rect x="1387.66" y="445.535" class="default" width="24.265" height="63.98" id="box7_36"></rect></g>
		<g><rect x="1414.919" y="445.535" class="default" width="24.264" height="63.98" id="box7_37"></rect></g>
		<g><rect x="1442.173" y="445.535" class="default" width="24.268" height="63.98" id="box7_38"></rect></g>
		<g><rect x="1360.401" y="513.023" class="default" width="24.268" height="63.982" id="box8_35"></rect></g>
		<g><rect x="1387.66" y="513.023" class="default" width="24.265" height="63.982" id="box8_36"></rect></g>
		<g><rect x="1414.919" y="513.023" class="default" width="24.264" height="63.982" id="box8_37"></rect></g>
		<g><rect x="1442.173" y="513.023" class="default" width="24.268" height="63.982" id="box8_38"></rect></g>
		<g><rect x="1360.401" y="580.519" class="default" width="24.268" height="63.98" id="box9_32"></rect></g>
		<g><rect x="1387.66" y="580.519" class="default" width="24.265" height="63.98" id="box9_33"></rect></g>
		<g><rect x="1414.919" y="580.519" class="default" width="24.264" height="63.98" id="box9_34"></rect></g>
		<g><rect x="1442.173" y="580.519" class="default" width="24.268" height="63.98" id="box9_35"></rect></g>
		<g><rect x="1360.401" y="648.009" class="default" width="24.268" height="63.98" id="box11_32"></rect></g>
		<g><rect x="1387.66" y="648.009" class="default" width="24.265" height="63.98" id="box11_33"></rect></g>
		<g><rect x="1414.919" y="648.009" class="default" width="24.264" height="63.98" id="box11_34"></rect></g>
		<g><rect x="1442.173" y="648.009" class="default" width="24.268" height="63.98" id="box11_35"></rect></g>
	</g>
	<g>
		<g><rect x="1486.919" y="445.535" class="default" width="24.268" height="63.98" id="box7_39"></rect></g>
		<g><rect x="1514.175" y="445.535" class="default" width="24.27" height="63.98" id="box7_40"></rect></g>
		<g><rect x="1541.435" y="445.535" class="default" width="24.267" height="63.98" id="box7_41"></rect></g>
		<g><rect x="1568.688" y="445.535" class="default" width="24.27" height="63.98" id="box7_42"></rect></g>
		<g><rect x="1486.919" y="513.023" class="default" width="24.268" height="63.982" id="box8_39"></rect></g>
		<g><rect x="1514.175" y="513.023" class="default" width="24.27" height="63.982" id="box8_40"></rect></g>
		<g><rect x="1541.435" y="513.023" class="default" width="24.267" height="63.982" id="box8_41"></rect></g>
		<g><rect x="1568.688" y="513.023" class="default" width="24.27" height="63.982" id="box8_42"></rect></g>
		<g><rect x="1486.919" y="580.519" class="default" width="24.268" height="63.98" id="box9_36"></rect></g>
		<g><rect x="1514.175" y="580.519" class="default" width="24.27" height="63.98" id="box9_37"></rect></g>
		<g><rect x="1541.435" y="580.519" class="default" width="24.267" height="63.98" id="box9_38"></rect></g>
		<g><rect x="1568.688" y="580.519" class="default" width="24.27" height="63.98" id="box9_39"></rect></g>
		<g><rect x="1486.919" y="648.009" class="default" width="24.268" height="63.98" id="box11_36"></rect></g>
		<g><rect x="1514.175" y="648.009" class="default" width="24.27" height="63.98" id="box11_37"></rect></g>
		<g><rect x="1541.435" y="648.009" class="default" width="24.267" height="63.98" id="box11_38"></rect></g>
		<g><rect x="1568.688" y="648.009" class="default" width="24.27" height="63.98" id="box11_39"></rect></g>
	</g>
	<g>
		<g><rect x="1613.438" y="445.535" class="default" width="24.266" height="63.98" id="box7_43"></rect></g>
		<g><rect x="1640.692" y="445.535" class="default" width="24.269" height="63.98" id="box7_44"></rect></g>
		<g><rect x="1667.952" y="445.535" class="default" width="24.265" height="63.98" id="box7_45"></rect></g>
		<g><rect x="1695.209" y="445.535" class="default" width="24.267" height="63.98" id="box7_46"></rect></g>
		<g><rect x="1613.438" y="513.023" class="default" width="24.266" height="63.982" id="box8_43"></rect></g>
		<g><rect x="1640.692" y="513.023" class="default" width="24.269" height="63.982" id="box8_44"></rect></g>
		<g><rect x="1667.952" y="513.023" class="default" width="24.265" height="63.982" id="box8_45"></rect></g>
		<g><rect x="1695.209" y="513.023" class="default" width="24.267" height="63.982" id="box8_46"></rect></g>
		<g><rect x="1613.438" y="580.519" class="default" width="24.266" height="63.98" id="box9_40"></rect></g>
		<g><rect x="1640.692" y="580.519" class="default" width="24.269" height="63.98" id="box9_41"></rect></g>
		<g><rect x="1667.952" y="580.519" class="default" width="24.265" height="63.98" id="box9_42"></rect></g>
		<g><rect x="1695.209" y="580.519" class="default" width="24.267" height="63.98" id="box9_43"></rect></g>
		<g><rect x="1613.438" y="648.009" class="default" width="24.266" height="63.98" id="box11_40"></rect></g>
		<g><rect x="1640.692" y="648.009" class="default" width="24.269" height="63.98" id="box11_41"></rect></g>
		<g><rect x="1667.952" y="648.009" class="default" width="24.265" height="63.98" id="box11_42"></rect></g>
		<g><rect x="1695.209" y="648.009" class="default" width="24.267" height="63.98" id="box11_43"></rect></g>
	</g>
	<g>
		<g><rect x="1740.429" y="276.17" class="default" width="24.266" height="63.98" id="box5_4"></rect></g>
		<g><rect x="1767.685" y="276.17" class="default" width="24.269" height="63.98" id="box5_5"></rect></g>
		<g><rect x="1794.942" y="276.17" class="default" width="24.266" height="63.98" id="box5_6"></rect></g>
		<g><rect x="1822.2" y="276.17" class="default" width="24.267" height="63.98" id="box5_7"></rect></g>
	</g>
		<use xmlns:xlink="http://www.w3.org/1999/xlink" xlink:href="#화살표_29" width="45.719" height="19.511" id="XMLID_1_" x="-22.859" y="-9.756" transform="matrix(-1.6167 0 0 2.8326 1804.6406 399.2021)" style="overflow:visible;"></use>
	<g>
		<g>
			<g><rect x="1738.935" y="445.535" class="default" width="24.266" height="63.98" id="box7_47"></rect></g>
			<g><rect x="1793.448" y="445.535" class="default" width="24.265" height="63.98" id="box7_48"></rect></g>
			<g><rect x="1820.705" y="445.535" class="default" width="24.267" height="63.98" id="box7_49"></rect></g>
			<g><rect x="1738.935" y="513.023" class="default" width="24.266" height="63.982" id="box8_47"></rect></g>
			<g><rect x="1793.448" y="513.023" class="default" width="24.265" height="63.982" id="box8_48"></rect></g>
			<g><rect x="1820.705" y="513.023" class="default" width="24.267" height="63.982" id="box8_49"></rect></g>
		</g>
		<g><rect x="1754.347" y="604.505" class="st3" width="72.221" height="79.99" id="box10_1"></rect></g>
	</g>
</g>
</svg>
