<?xml version="1.0" encoding="utf-8"?>
<!-- Generator: Adobe Illustrator 16.0.0, SVG Export Plug-In . SVG Version: 6.00 Build 0)  -->
<!DOCTYPE svg PUBLIC "-//W3C//DTD SVG 1.1//EN" "http://www.w3.org/Graphics/SVG/1.1/DTD/svg11.dtd">
<svg version="1.1" id="wrap_svg" xmlns="http://www.w3.org/2000/svg" xmlns:xlink="http://www.w3.org/1999/xlink" x="0px"
	 y="0px" width="1984.25px" height="850.39px" viewBox="0 0 1984.25 850.39" style="enable-background:new 0 0 1984.25 850.39;"
	 xml:space="preserve">
<style type="text/css">
<![CDATA[
	.st0{font-family:'AdobeMyungjoStd-Medium-KSCpc-EUC-H';}
	.st1{fill:#FCDA52;stroke:#F8C54F;}
	.etc{fill:#E83532;}
	.default{fill:#8E8E8E;}
	.others{fill:#505050;}
	.elv{fill:#F49F3A;}
	.target{fill:green;}
	.own{fill:#cddc39;}
	.st5{fill:#FFFFFF;}
	.st6{fill:none;}
]]>
</style>
<pattern  width="54.398" height="81.599" patternUnits="userSpaceOnUse" id="Unnamed_Pattern" viewBox="35.7 -86.94 54.398 81.599" style="overflow:visible;">
	<g>
		<polygon class="st6" points="35.7,-5.342 35.7,-86.94 90.099,-86.94 90.099,-5.342 		"/>
		<line class="st5" x1="15.385" y1="-11.342" x2="21.385" y2="-5.342"/>
		<line class="st5" x1="15.385" y1="-5.342" x2="21.385" y2="-11.342"/>
		<polygon class="st1" points="91.699,-91.279 91.699,-87.74 94.434,-86.373 94.454,-83.163 90.099,-85.34 72.499,-76.54 
			78.899,-73.341 78.899,-70.141 67.699,-75.74 67.699,-86.94 70.899,-85.34 70.899,-78.94 88.499,-87.74 88.499,-91.279 		"/>
		<polygon class="st1" points="47.475,-91.228 45.299,-90.14 51.699,-86.94 51.699,-83.74 40.499,-89.34 40.499,-91.279 		"/>
		<polygon class="st1" points="85.299,-91.279 85.299,-89.34 74.099,-83.74 74.099,-86.94 80.499,-90.14 78.254,-91.263 		"/>
		<polygon class="st1" points="94.444,-76.768 91.699,-78.14 91.699,-60.541 94.454,-59.163 94.449,-55.966 90.099,-58.141 
			72.499,-49.341 78.899,-46.141 78.899,-42.941 67.699,-48.541 67.699,-59.741 70.899,-58.141 70.899,-51.741 88.499,-60.541 
			88.499,-78.14 82.099,-74.94 78.899,-76.54 90.099,-82.14 94.449,-79.965 		"/>
		<polygon class="st1" points="62.899,-95.74 74.099,-90.14 70.899,-88.54 64.499,-91.74 64.499,-74.141 82.099,-65.341 
			82.099,-71.741 85.299,-73.341 85.299,-62.141 74.099,-56.541 74.099,-59.741 80.499,-62.941 62.899,-71.741 45.299,-62.941 
			51.699,-59.741 51.699,-56.541 40.499,-62.141 40.499,-73.341 43.699,-71.741 43.699,-65.341 61.299,-74.141 61.299,-91.74 
			54.899,-88.54 51.699,-90.14 		"/>
		<polygon class="st1" points="31.371,-86.376 34.101,-87.74 34.101,-91.279 37.3,-91.279 37.3,-87.74 54.899,-78.94 54.899,-85.34 
			58.099,-86.94 58.099,-75.74 46.899,-70.141 46.899,-73.341 53.299,-76.54 35.7,-85.34 31.401,-83.191 		"/>
		<polygon class="st1" points="31.376,-59.178 34.101,-60.541 34.101,-78.14 31.386,-76.783 31.381,-79.981 35.7,-82.14 
			46.899,-76.54 43.699,-74.94 37.3,-78.14 37.3,-60.541 54.899,-51.741 54.899,-58.141 58.099,-59.741 58.099,-48.541 
			46.899,-42.941 46.899,-46.141 53.299,-49.341 35.7,-58.141 31.405,-55.993 		"/>
		<polygon class="st1" points="94.464,-49.558 91.699,-50.941 91.699,-33.341 94.449,-31.966 94.47,-28.756 90.099,-30.941 
			72.499,-22.141 78.899,-18.941 78.899,-15.741 67.699,-21.341 67.699,-32.541 70.899,-30.941 70.899,-24.541 88.499,-33.341 
			88.499,-50.941 82.099,-47.741 78.899,-49.341 90.099,-54.941 94.444,-52.768 		"/>
		<polygon class="st1" points="62.899,-68.541 74.099,-62.941 70.899,-61.341 64.499,-64.541 64.499,-46.941 82.099,-38.141 
			82.099,-44.541 85.299,-46.141 85.299,-34.941 74.099,-29.341 74.099,-32.541 80.499,-35.741 62.899,-44.541 45.299,-35.741 
			51.699,-32.541 51.699,-29.341 40.499,-34.941 40.499,-46.141 43.699,-44.541 43.699,-38.141 61.299,-46.941 61.299,-64.541 
			54.899,-61.341 51.699,-62.941 		"/>
		<polygon class="st1" points="94.484,-22.349 91.699,-23.741 91.699,-6.142 94.444,-4.77 94.465,-1.559 90.099,-3.742 
			84.644,-1.015 78.264,-1.025 88.499,-6.142 88.499,-23.741 82.099,-20.541 78.899,-22.141 90.099,-27.741 94.439,-25.571 		"/>
		<polygon class="st1" points="62.899,-41.341 74.099,-35.741 70.899,-34.141 64.499,-37.341 64.499,-19.741 82.099,-10.941 
			82.099,-17.341 85.299,-18.941 85.299,-7.742 74.099,-2.143 74.099,-5.342 80.499,-8.542 62.899,-17.341 45.299,-8.542 
			51.699,-5.342 51.699,-2.143 40.499,-7.742 40.499,-18.941 43.699,-17.341 43.699,-10.941 61.299,-19.741 61.299,-37.341 
			54.899,-34.141 51.699,-35.741 		"/>
		<polygon class="st1" points="61.299,-1.03 61.299,-10.141 54.899,-6.942 51.699,-8.542 62.899,-14.141 74.099,-8.542 
			70.899,-6.942 64.499,-10.141 64.499,-1.03 		"/>
		<polygon class="st1" points="31.381,-31.981 34.101,-33.341 34.101,-50.941 31.391,-49.586 31.411,-52.796 35.7,-54.941 
			46.899,-49.341 43.699,-47.741 37.3,-50.941 37.3,-33.341 54.899,-24.541 54.899,-30.941 58.099,-32.541 58.099,-21.341 
			46.899,-15.741 46.899,-18.941 53.299,-22.141 35.7,-30.941 31.41,-28.796 		"/>
		<polygon class="st1" points="54.899,-1.03 54.899,-3.742 58.099,-5.342 58.099,-1.03 		"/>
		<polygon class="st1" points="31.366,-1.575 35.7,-3.742 41.186,-1 47.565,-1.01 37.3,-6.142 37.3,-23.741 43.699,-20.541 
			46.899,-22.141 35.7,-27.741 31.391,-25.586 31.345,-22.364 34.101,-23.741 34.101,-6.142 31.385,-4.785 		"/>
		<polygon class="st1" points="10.601,-60.54 10.601,-78.14 4.2,-74.94 1,-76.54 12.2,-82.14 23.399,-76.54 20.2,-74.94 
			13.8,-78.14 13.8,-60.54 		"/>
	</g>
</pattern>
<g id="wrap_g">
	<g>
		<g><rect x="343.138" y="205.162" class="others" width="24.266" height="63.981" id="box1_0"></rect></g>
		<g><rect x="288.625" y="272.658" class="others" width="24.264" height="63.98" id="box2_0"></rect></g>
		<g><rect x="315.881" y="272.658" class="others" width="24.268" height="63.98" id="box2_1"></rect></g>
		<g><rect x="343.138" y="272.658" class="others" width="24.266" height="63.98" id="box2_2"></rect></g>
		<g><rect x="261.366" y="340.147" class="others" width="24.268" height="63.981" id="box3_0"></rect></g>
		<g><rect x="288.625" y="340.147" class="others" width="24.264" height="63.981" id="box3_1"></rect></g>
		<g><rect x="315.881" y="340.147" class="others" width="24.268" height="63.981" id="box3_2"></rect></g>
		<g><rect x="343.138" y="340.147" class="others" width="24.266" height="63.981" id="box3_3"></rect></g>
	</g>
	<g>
		<g><rect x="387.884" y="137.672" class="others" width="24.266" height="63.981" id="box0_0"></rect></g>
		<g><rect x="415.143" y="137.672" class="others" width="24.267" height="63.981" id="box0_1"></rect></g>
		<g><rect x="442.399" y="137.672" class="others" width="24.267" height="63.981" id="box0_2"></rect></g>
		<g><rect x="469.656" y="137.672" class="others" width="24.267" height="63.981" id="box0_3"></rect></g>
		<g><rect x="387.884" y="205.162" class="others" width="24.266" height="63.981" id="box1_1"></rect></g>
		<g><rect x="415.143" y="205.162" class="others" width="24.267" height="63.981" id="box1_2"></rect></g>
		<g><rect x="442.399" y="205.162" class="others" width="24.267" height="63.981" id="box1_3"></rect></g>
		<g><rect x="469.656" y="205.162" class="others" width="24.267" height="63.981" id="box1_4"></rect></g>
		<g><rect x="387.884" y="272.658" class="others" width="24.266" height="63.98" id="box2_3"></rect></g>
		<g><rect x="415.143" y="272.658" class="others" width="24.267" height="63.98" id="box2_4"></rect></g>
		<g><rect x="442.399" y="272.658" class="others" width="24.267" height="63.98" id="box2_5"></rect></g>
		<g><rect x="469.656" y="272.658" class="others" width="24.267" height="63.98" id="box2_6"></rect></g>
		<g><rect x="387.884" y="340.147" class="others" width="24.266" height="63.981" id="box3_4"></rect></g>
		<g><rect x="415.143" y="340.147" class="others" width="24.267" height="63.981" id="box3_5"></rect></g>
		<g><rect x="442.399" y="340.147" class="others" width="24.267" height="63.981" id="box3_6"></rect></g>
		<g><rect x="469.656" y="340.147" class="others" width="24.267" height="63.981" id="box3_7"></rect></g>
	</g>
	<g>
		<g><rect x="514.403" y="137.672" class="others" width="24.266" height="63.981" id="box0_4"></rect></g>
		<g><rect x="541.66" y="137.672" class="others" width="24.268" height="63.981" id="box0_5"></rect></g>
		<g><rect x="568.917" y="137.672" class="others" width="24.266" height="63.981" id="box0_6"></rect></g>
		<g><rect x="596.175" y="137.672" class="others" width="24.266" height="63.981" id="box0_7"></rect></g>
		<g><rect x="514.403" y="205.162" class="others" width="24.266" height="63.981" id="box1_5"></rect></g>
		<g><rect x="541.66" y="205.162" class="others" width="24.268" height="63.981" id="box1_6"></rect></g>
		<g><rect x="568.917" y="205.162" class="others" width="24.266" height="63.981" id="box1_7"></rect></g>
		<g><rect x="596.175" y="205.162" class="others" width="24.266" height="63.981" id="box1_8"></rect></g>
		<g><rect x="514.403" y="272.658" class="others" width="24.266" height="63.98" id="box2_7"></rect></g>
		<g><rect x="541.66" y="272.658" class="others" width="24.268" height="63.98" id="box2_8"></rect></g>
		<g><rect x="568.917" y="272.658" class="others" width="24.266" height="63.98" id="box2_9"></rect></g>
		<g><rect x="596.175" y="272.658" class="others" width="24.266" height="63.98" id="box2_10"></rect></g>
		<g><rect x="514.403" y="340.147" class="others" width="24.266" height="63.981" id="box3_8"></rect></g>
		<g><rect x="541.66" y="340.147" class="others" width="24.268" height="63.981" id="box3_9"></rect></g>
		<g><rect x="568.917" y="340.147" class="others" width="24.266" height="63.981" id="box3_10"></rect></g>
		<g><rect x="596.175" y="340.147" class="others" width="24.266" height="63.981" id="box3_11"></rect></g>
	</g>
	<g>
		<g><rect x="663.295" y="137.672" class="others" width="24.266" height="63.981" id="box0_8"></rect></g>
		<g><rect x="690.552" y="137.672" class="others" width="24.267" height="63.981" id="box0_9"></rect></g>
		<g><rect x="717.811" y="137.672" class="others" width="24.266" height="63.981" id="box0_10"></rect></g>
		<g><rect x="745.066" y="137.672" class="others" width="24.268" height="63.981" id="box0_11"></rect></g>
		<g><rect x="663.295" y="205.162" class="others" width="24.266" height="63.981" id="box1_9"></rect></g>
		<g><rect x="690.552" y="205.162" class="others" width="24.267" height="63.981" id="box1_10"></rect></g>
		<g><rect x="717.811" y="205.162" class="others" width="24.266" height="63.981" id="box1_11"></rect></g>
		<g><rect x="745.066" y="205.162" class="others" width="24.268" height="63.981" id="box1_12"></rect></g>
		<g><rect x="663.295" y="272.658" class="others" width="24.266" height="63.98" id="box2_11"></rect></g>
		<g><rect x="690.552" y="272.658" class="others" width="24.267" height="63.98" id="box2_12"></rect></g>
		<g><rect x="717.811" y="272.658" class="others" width="24.266" height="63.98" id="box2_13"></rect></g>
		<g><rect x="745.066" y="272.658" class="others" width="24.268" height="63.98" id="box2_14"></rect></g>
		<g><rect x="663.295" y="340.147" class="others" width="24.266" height="63.981" id="box3_12"></rect></g>
		<g><rect x="690.552" y="340.147" class="others" width="24.267" height="63.981" id="box3_13"></rect></g>
		<g><rect x="717.811" y="340.147" class="others" width="24.266" height="63.981" id="box3_14"></rect></g>
		<g><rect x="745.066" y="340.147" class="others" width="24.268" height="63.981" id="box3_15"></rect></g>
	</g>
	<g>
		<g><rect x="789.813" y="137.672" class="others" width="24.266" height="63.981" id="box0_12"></rect></g>
		<g><rect x="817.07" y="137.672" class="others" width="24.266" height="63.981" id="box0_13"></rect></g>
		<g><rect x="844.328" y="137.672" class="others" width="24.268" height="63.981" id="box0_14"></rect></g>
		<g><rect x="871.584" y="137.672" class="others" width="24.267" height="63.981" id="box0_15"></rect></g>
		<g><rect x="789.813" y="205.162" class="others" width="24.266" height="63.981" id="box1_13"></rect></g>
		<g><rect x="817.07" y="205.162" class="others" width="24.266" height="63.981" id="box1_14"></rect></g>
		<g><rect x="844.328" y="205.162" class="others" width="24.268" height="63.981" id="box1_15"></rect></g>
		<g><rect x="871.584" y="205.162" class="others" width="24.267" height="63.981" id="box1_16"></rect></g>
		<g><rect x="789.813" y="272.658" class="others" width="24.266" height="63.98" id="box2_15"></rect></g>
		<g><rect x="817.07" y="272.658" class="others" width="24.266" height="63.98" id="box2_16"></rect></g>
		<g><rect x="844.328" y="272.658" class="others" width="24.268" height="63.98" id="box2_17"></rect></g>
		<g><rect x="871.584" y="272.658" class="others" width="24.267" height="63.98" id="box2_18"></rect></g>
		<g><rect x="789.813" y="340.147" class="others" width="24.266" height="63.981" id="box3_16"></rect></g>
		<g><rect x="817.07" y="340.147" class="others" width="24.266" height="63.981" id="box3_17"></rect></g>
		<g><rect x="844.328" y="340.147" class="others" width="24.268" height="63.981" id="box3_18"></rect></g>
		<g><rect x="871.584" y="340.147" class="others" width="24.267" height="63.981" id="box3_19"></rect></g>
	</g>
	<g>
		<g><rect x="916.331" y="137.672" class="default" width="24.265" height="63.981" id="box0_16"></rect></g>
		<g><rect x="970.845" y="137.672" class="elv" width="51.521" height="63.981" id="box0_17"></rect></g>
		<g><rect x="916.331" y="205.162" class="default" width="24.265" height="63.981" id="box1_17"></rect></g>
		<g><rect x="970.845" y="205.162" class="default" width="24.265" height="63.981" id="box1_18"></rect></g>
		<g><rect x="998.103" y="205.162" class="default" width="24.264" height="63.981" id="box1_19"></rect></g>
		<g><rect x="916.331" y="272.658" class="default" width="24.265" height="63.98" id="box2_19"></rect></g>
		<g><rect x="970.845" y="272.658" class="default" width="24.265" height="63.98" id="box2_20"></rect></g>
		<g><rect x="998.103" y="272.658" class="default" width="24.264" height="63.98" id="box2_21"></rect></g>
		<g><rect x="916.331" y="340.147" class="default" width="24.265" height="63.981" id="box3_20"></rect></g>
		<g><rect x="970.845" y="340.147" class="default" width="24.265" height="63.981" id="box3_21"></rect></g>
		<g><rect x="998.103" y="340.147" class="default" width="24.264" height="63.981" id="box3_22"></rect></g>
	</g>
	<g>
		<g><rect x="1042.85" y="137.672" class="default" width="24.265" height="63.981" id="box0_18"></rect></g>
		<g><rect x="1070.105" y="137.672" class="default" width="24.268" height="63.981" id="box0_19"></rect></g>
		<g><rect x="1097.362" y="137.672" class="default" width="24.268" height="63.981" id="box0_20"></rect></g>
		<g><rect x="1124.621" y="137.672" class="default" width="24.264" height="63.981" id="box0_21"></rect></g>
		<g><rect x="1042.85" y="205.162" class="default" width="24.265" height="63.981" id="box1_20"></rect></g>
		<g><rect x="1070.105" y="205.162" class="default" width="24.268" height="63.981" id="box1_21"></rect></g>
		<g><rect x="1097.362" y="205.162" class="default" width="24.268" height="63.981" id="box1_22"></rect></g>
		<g><rect x="1124.621" y="205.162" class="default" width="24.264" height="63.981" id="box1_23"></rect></g>
		<g><rect x="1042.85" y="272.658" class="default" width="24.265" height="63.98" id="box2_22"></rect></g>
		<g><rect x="1070.105" y="272.658" class="default" width="24.268" height="63.98" id="box2_23"></rect></g>
		<g><rect x="1097.362" y="272.658" class="default" width="24.268" height="63.98" id="box2_24"></rect></g>
		<g><rect x="1124.621" y="272.658" class="default" width="24.264" height="63.98" id="box2_25"></rect></g>
		<g><rect x="1042.85" y="340.147" class="default" width="24.265" height="63.981" id="box3_23"></rect></g>
		<g><rect x="1070.105" y="340.147" class="default" width="24.268" height="63.981" id="box3_24"></rect></g>
		<g><rect x="1097.362" y="340.147" class="default" width="24.268" height="63.981" id="box3_25"></rect></g>
		<g><rect x="1124.621" y="340.147" class="default" width="24.264" height="63.981" id="box3_26"></rect></g>
	</g>
	<g>
		<g><rect x="1169.366" y="137.672" class="default" width="24.267" height="63.981" id="box0_22"></rect></g>
		<g><rect x="1196.623" y="137.672" class="default" width="24.268" height="63.981" id="box0_23"></rect></g>
		<g><rect x="1223.88" y="137.672" class="default" width="24.269" height="63.981" id="box0_24"></rect></g>
		<g><rect x="1251.139" y="137.672" class="default" width="24.264" height="63.981" id="box0_25"></rect></g>
		<g><rect x="1169.366" y="205.162" class="default" width="24.267" height="63.981" id="box1_24"></rect></g>
		<g><rect x="1196.623" y="205.162" class="default" width="24.268" height="63.981" id="box1_25"></rect></g>
		<g><rect x="1223.88" y="205.162" class="default" width="24.269" height="63.981" id="box1_26"></rect></g>
		<g><rect x="1251.139" y="205.162" class="default" width="24.264" height="63.981" id="box1_27"></rect></g>
		<g><rect x="1169.366" y="272.658" class="default" width="24.267" height="63.98" id="box2_26"></rect></g>
		<g><rect x="1196.623" y="272.658" class="default" width="24.268" height="63.98" id="box2_27"></rect></g>
		<g><rect x="1223.88" y="272.658" class="default" width="24.269" height="63.98" id="box2_28"></rect></g>
		<g><rect x="1251.139" y="272.658" class="default" width="24.264" height="63.98" id="box2_29"></rect></g>
		<g><rect x="1169.366" y="340.147" class="default" width="24.267" height="63.981" id="box3_27"></rect></g>
		<g><rect x="1196.623" y="340.147" class="default" width="24.268" height="63.981" id="box3_28"></rect></g>
		<g><rect x="1223.88" y="340.147" class="default" width="24.269" height="63.981" id="box3_29"></rect></g>
		<g><rect x="1251.139" y="340.147" class="default" width="24.264" height="63.981" id="box3_30"></rect></g>
	</g>
	<g>
		<g><rect x="1295.885" y="137.672" class="default" width="24.264" height="63.981" id="box0_26"></rect></g>
		<g><rect x="1323.141" y="137.672" class="default" width="24.268" height="63.981" id="box0_27"></rect></g>
		<g><rect x="1350.398" y="137.672" class="default" width="24.268" height="63.981" id="box0_28"></rect></g>
		<g><rect x="1377.654" y="137.672" class="default" width="24.269" height="63.981" id="box0_29"></rect></g>
		<g><rect x="1295.885" y="205.162" class="default" width="24.264" height="63.981" id="box1_28"></rect></g>
		<g><rect x="1323.141" y="205.162" class="default" width="24.268" height="63.981" id="box1_29"></rect></g>
		<g><rect x="1350.398" y="205.162" class="default" width="24.268" height="63.981" id="box1_30"></rect></g>
		<g><rect x="1377.654" y="205.162" class="default" width="24.269" height="63.981" id="box1_31"></rect></g>
		<g><rect x="1295.885" y="272.658" class="default" width="24.264" height="63.98" id="box2_30"></rect></g>
		<g><rect x="1323.141" y="272.658" class="default" width="24.268" height="63.98" id="box2_31"></rect></g>
		<g><rect x="1350.398" y="272.658" class="default" width="24.268" height="63.98" id="box2_32"></rect></g>
		<g><rect x="1377.654" y="272.658" class="default" width="24.269" height="63.98" id="box2_33"></rect></g>
		<g><rect x="1295.885" y="340.147" class="default" width="24.264" height="63.981" id="box3_31"></rect></g>
		<g><rect x="1323.141" y="340.147" class="default" width="24.268" height="63.981" id="box3_32"></rect></g>
		<g><rect x="1350.398" y="340.147" class="default" width="24.268" height="63.981" id="box3_33"></rect></g>
		<g><rect x="1377.654" y="340.147" class="default" width="24.269" height="63.981" id="box3_34"></rect></g>
	</g>
	<g>
		<g><rect x="1422.402" y="137.672" class="default" width="24.267" height="63.981" id="box0_30"></rect></g>
		<g><rect x="1449.66" y="137.672" class="default" width="24.265" height="63.981" id="box0_31"></rect></g>
		<g><rect x="1476.919" y="137.672" class="default" width="24.264" height="63.981" id="box0_32"></rect></g>
		<g><rect x="1504.173" y="137.672" class="default" width="24.268" height="63.981" id="box0_33"></rect></g>
		<g><rect x="1422.402" y="205.162" class="default" width="24.267" height="63.981" id="box1_32"></rect></g>
		<g><rect x="1449.66" y="205.162" class="default" width="24.265" height="63.981" id="box1_33"></rect></g>
		<g><rect x="1476.919" y="205.162" class="default" width="24.264" height="63.981" id="box1_34"></rect></g>
		<g><rect x="1504.173" y="205.162" class="default" width="24.268" height="63.981" id="box1_35"></rect></g>
		<g><rect x="1422.402" y="272.658" class="default" width="24.267" height="63.98" id="box2_34"></rect></g>
		<g><rect x="1449.66" y="272.658" class="default" width="24.265" height="63.98" id="box2_35"></rect></g>
		<g><rect x="1476.919" y="272.658" class="default" width="24.264" height="63.98" id="box2_36"></rect></g>
		<g><rect x="1504.173" y="272.658" class="default" width="24.268" height="63.98" id="box2_37"></rect></g>
		<g><rect x="1422.402" y="340.147" class="default" width="24.267" height="63.981" id="box3_35"></rect></g>
		<g><rect x="1449.66" y="340.147" class="default" width="24.265" height="63.981" id="box3_36"></rect></g>
		<g><rect x="1476.919" y="340.147" class="default" width="24.264" height="63.981" id="box3_37"></rect></g>
		<g><rect x="1504.173" y="340.147" class="default" width="24.268" height="63.981" id="box3_38"></rect></g>
	</g>
	<g>
		<g><rect x="1675.438" y="340.15" class="default" width="24.266" height="63.98" id="box4_0"></rect></g>
		<g><rect x="1702.693" y="340.15" class="default" width="24.268" height="63.98" id="box4_1"></rect></g>
		<g><rect x="1729.952" y="340.15" class="default" width="24.265" height="63.98" id="box4_2"></rect></g>
		<g><rect x="1757.209" y="340.15" class="default" width="24.267" height="63.98" id="box4_3"></rect></g>
	</g>
	<g>
		<g><rect x="134.849" y="445.534" class="default" width="24.268" height="63.981" id="box5_0"></rect></g>
		<g><rect x="162.104" y="445.534" class="default" width="24.268" height="63.981" id="box5_1"></rect></g>
		<g><rect x="189.363" y="445.534" class="default" width="24.268" height="63.981" id="box5_2"></rect></g>
		<g><rect x="216.62" y="445.534" class="default" width="24.267" height="63.981" id="box5_3"></rect></g>
		<g><rect x="134.849" y="513.023" class="default" width="24.268" height="63.982" id="box6_0"></rect></g>
		<g><rect x="162.104" y="513.023" class="default" width="24.268" height="63.982" id="box6_1"></rect></g>
		<g><rect x="189.363" y="513.023" class="default" width="24.268" height="63.982" id="box6_2"></rect></g>
		<g><rect x="216.62" y="513.023" class="default" width="24.267" height="63.982" id="box6_3"></rect></g>
		<g><rect x="134.849" y="580.52" class="default" width="24.268" height="63.98" id="box7_0"></rect></g>
		<g><rect x="162.104" y="580.52" class="default" width="24.268" height="63.98" id="box7_1"></rect></g>
		<g><rect x="189.363" y="580.52" class="default" width="24.268" height="63.98" id="box7_2"></rect></g>
		<g><rect x="216.62" y="580.52" class="default" width="24.267" height="63.98" id="box7_3"></rect></g>
		<g><rect x="134.849" y="648.01" class="default" width="24.268" height="63.98" id="box8_0"></rect></g>
		<g><rect x="162.104" y="648.01" class="default" width="24.268" height="63.98" id="box8_1"></rect></g>
		<g><rect x="189.363" y="648.01" class="default" width="24.268" height="63.98" id="box8_2"></rect></g>
		<g><rect x="216.62" y="648.01" class="default" width="24.267" height="63.98" id="box8_3"></rect></g>
	</g>
	<g>
		<g><rect x="261.366" y="445.534" class="default" width="24.268" height="63.981" id="box5_4"></rect></g>
		<g><rect x="288.625" y="445.534" class="default" width="24.264" height="63.981" id="box5_5"></rect></g>
		<g><rect x="315.881" y="445.534" class="default" width="24.268" height="63.981" id="box5_6"></rect></g>
		<g><rect x="343.138" y="445.534" class="default" width="24.266" height="63.981" id="box5_7"></rect></g>
		<g><rect x="261.366" y="513.023" class="default" width="24.268" height="63.982" id="box6_4"></rect></g>
		<g><rect x="288.625" y="513.023" class="default" width="24.264" height="63.982" id="box6_5"></rect></g>
		<g><rect x="315.881" y="513.023" class="default" width="24.268" height="63.982" id="box6_6"></rect></g>
		<g><rect x="343.138" y="513.023" class="default" width="24.266" height="63.982" id="box6_7"></rect></g>
		<g><rect x="261.366" y="580.52" class="default" width="24.268" height="63.98" id="box7_4"></rect></g>
		<g><rect x="288.625" y="580.52" class="default" width="24.264" height="63.98" id="box7_5"></rect></g>
		<g><rect x="315.881" y="580.52" class="default" width="24.268" height="63.98" id="box7_6"></rect></g>
		<g><rect x="343.138" y="580.52" class="default" width="24.266" height="63.98" id="box7_7"></rect></g>
		<g><rect x="261.366" y="648.01" class="default" width="24.268" height="63.98" id="box8_4"></rect></g>
		<g><rect x="288.625" y="648.01" class="default" width="24.264" height="63.98" id="box8_5"></rect></g>
		<g><rect x="315.881" y="648.01" class="default" width="24.268" height="63.98" id="box8_6"></rect></g>
		<g><rect x="343.138" y="648.01" class="default" width="24.266" height="63.98" id="box8_7"></rect></g>
	</g>
	<g>
		<g><rect x="387.884" y="445.534" class="default" width="24.266" height="63.981" id="box5_8"></rect></g>
		<g><rect x="415.143" y="445.534" class="default" width="24.267" height="63.981" id="box5_9"></rect></g>
		<g><rect x="469.656" y="445.534" class="default" width="24.267" height="63.981" id="box5_10"></rect></g>
		<g><rect x="387.884" y="513.023" class="default" width="24.266" height="63.982" id="box6_8"></rect></g>
		<g><rect x="415.143" y="513.023" class="default" width="24.267" height="63.982" id="box6_9"></rect></g>
		<g><rect x="469.656" y="513.023" class="default" width="24.267" height="63.982" id="box6_10"></rect></g>
	</g>
	<g>
		<g><rect x="514.403" y="445.534" class="default" width="24.266" height="63.981" id="box5_11"></rect></g>
		<g><rect x="541.66" y="445.534" class="default" width="24.268" height="63.981" id="box5_12"></rect></g>
		<g><rect x="568.917" y="445.534" class="default" width="24.266" height="63.981" id="box5_13"></rect></g>
		<g><rect x="596.175" y="445.534" class="default" width="24.266" height="63.981" id="box5_14"></rect></g>
		<g><rect x="514.403" y="513.023" class="default" width="24.266" height="63.982" id="box6_11"></rect></g>
		<g><rect x="541.66" y="513.023" class="default" width="24.268" height="63.982" id="box6_12"></rect></g>
		<g><rect x="568.917" y="513.023" class="default" width="24.266" height="63.982" id="box6_13"></rect></g>
		<g><rect x="596.175" y="513.023" class="default" width="24.266" height="63.982" id="box6_14"></rect></g>
		<g><rect x="514.403" y="580.52" class="default" width="24.266" height="63.98" id="box7_8"></rect></g>
		<g><rect x="541.66" y="580.52" class="default" width="24.268" height="63.98" id="box7_9"></rect></g>
		<g><rect x="568.917" y="580.52" class="default" width="24.266" height="63.98" id="box7_10"></rect></g>
		<g><rect x="596.175" y="580.52" class="default" width="24.266" height="63.98" id="box7_11"></rect></g>
		<g><rect x="514.403" y="648.01" class="default" width="24.266" height="63.98" id="box8_8"></rect></g>
		<g><rect x="541.66" y="648.01" class="default" width="24.268" height="63.98" id="box8_9"></rect></g>
		<g><rect x="568.917" y="648.01" class="default" width="24.266" height="63.98" id="box8_10"></rect></g>
		<g><rect x="596.175" y="648.01" class="default" width="24.266" height="63.98" id="box8_11"></rect></g>
	</g>
	<g>
		<g><rect x="663.295" y="445.534" class="default" width="24.266" height="63.981" id="box5_15"></rect></g>
		<g><rect x="690.552" y="445.534" class="default" width="24.267" height="63.981" id="box5_16"></rect></g>
		<g><rect x="717.811" y="445.534" class="default" width="24.266" height="63.981" id="box5_17"></rect></g>
		<g><rect x="745.066" y="445.534" class="default" width="24.268" height="63.981" id="box5_18"></rect></g>
		<g><rect x="663.295" y="513.023" class="default" width="24.266" height="63.982" id="box6_15"></rect></g>
		<g><rect x="690.552" y="513.023" class="default" width="24.267" height="63.982" id="box6_16"></rect></g>
		<g><rect x="717.811" y="513.023" class="default" width="24.266" height="63.982" id="box6_17"></rect></g>
		<g><rect x="745.066" y="513.023" class="default" width="24.268" height="63.982" id="box6_18"></rect></g>
		<g><rect x="663.295" y="580.52" class="default" width="24.266" height="63.98" id="box7_12"></rect></g>
		<g><rect x="690.552" y="580.52" class="default" width="24.267" height="63.98" id="box7_13"></rect></g>
		<g><rect x="717.811" y="580.52" class="default" width="24.266" height="63.98" id="box7_14"></rect></g>
		<g><rect x="745.066" y="580.52" class="default" width="24.268" height="63.98" id="box7_15"></rect></g>
		<g><rect x="663.295" y="648.01" class="default" width="24.266" height="63.98" id="box8_12"></rect></g>
		<g><rect x="690.552" y="648.01" class="default" width="24.267" height="63.98" id="box8_13"></rect></g>
		<g><rect x="717.811" y="648.01" class="default" width="24.266" height="63.98" id="box8_14"></rect></g>
		<g><rect x="745.066" y="648.01" class="default" width="24.268" height="63.98" id="box8_15"></rect></g>
	</g>
	<g>
		<g><rect x="789.813" y="445.534" class="default" width="24.266" height="63.981" id="box5_19"></rect></g>
		<g><rect x="817.07" y="445.534" class="default" width="24.266" height="63.981" id="box5_20"></rect></g>
		<g><rect x="844.328" y="445.534" class="default" width="24.268" height="63.981" id="box5_21"></rect></g>
		<g><rect x="871.584" y="445.534" class="default" width="24.267" height="63.981" id="box5_22"></rect></g>
		<g><rect x="789.813" y="513.023" class="default" width="24.266" height="63.982" id="box6_19"></rect></g>
		<g><rect x="817.07" y="513.023" class="default" width="24.266" height="63.982" id="box6_20"></rect></g>
		<g><rect x="844.328" y="513.023" class="default" width="24.268" height="63.982" id="box6_21"></rect></g>
		<g><rect x="871.584" y="513.023" class="default" width="24.267" height="63.982" id="box6_22"></rect></g>
		<g><rect x="789.813" y="580.52" class="default" width="24.266" height="63.98" id="box7_16"></rect></g>
		<g><rect x="817.07" y="580.52" class="default" width="24.266" height="63.98" id="box7_17"></rect></g>
		<g><rect x="844.328" y="580.52" class="default" width="24.268" height="63.98" id="box7_18"></rect></g>
		<g><rect x="871.584" y="580.52" class="default" width="24.267" height="63.98" id="box7_19"></rect></g>
		<g><rect x="789.813" y="648.01" class="default" width="24.266" height="63.98" id="box8_16"></rect></g>
		<g><rect x="817.07" y="648.01" class="default" width="24.266" height="63.98" id="box8_17"></rect></g>
		<g><rect x="844.328" y="648.01" class="default" width="24.268" height="63.98" id="box8_18"></rect></g>
		<g><rect x="871.584" y="648.01" class="default" width="24.267" height="63.98" id="box8_19"></rect></g>
	</g>
	<g>
		<g><rect x="916.331" y="445.534" class="default" width="24.265" height="63.981" id="box5_23"></rect></g>
		<g><rect x="943.587" y="445.534" class="default" width="24.268" height="63.981" id="box5_24"></rect></g>
		<g><rect x="970.845" y="445.534" class="default" width="24.265" height="63.981" id="box5_25"></rect></g>
		<g><rect x="998.103" y="445.534" class="default" width="24.264" height="63.981" id="box5_26"></rect></g>
		<g><rect x="916.331" y="513.023" class="default" width="24.265" height="63.982" id="box6_23"></rect></g>
		<g><rect x="943.587" y="513.023" class="default" width="24.268" height="63.982" id="box6_24"></rect></g>
		<g><rect x="970.845" y="513.023" class="default" width="24.265" height="63.982" id="box6_25"></rect></g>
		<g><rect x="998.103" y="513.023" class="default" width="24.264" height="63.982" id="box6_26"></rect></g>
		<g><rect x="916.331" y="580.52" class="default" width="24.265" height="63.98" id="box7_20"></rect></g>
		<g><rect x="943.587" y="580.52" class="default" width="24.268" height="63.98" id="box7_21"></rect></g>
		<g><rect x="970.845" y="580.52" class="default" width="24.265" height="63.98" id="box7_22"></rect></g>
		<g><rect x="998.103" y="580.52" class="default" width="24.264" height="63.98" id="box7_23"></rect></g>
		<g><rect x="916.331" y="648.01" class="default" width="24.265" height="63.98" id="box8_20"></rect></g>
		<g><rect x="943.587" y="648.01" class="default" width="24.268" height="63.98" id="box8_21"></rect></g>
		<g><rect x="970.845" y="648.01" class="default" width="24.265" height="63.98" id="box8_22"></rect></g>
		<g><rect x="998.103" y="648.01" class="default" width="24.264" height="63.98" id="box8_23"></rect></g>
	</g>
	<g>
		<g><rect x="1042.85" y="445.534" class="own" width="24.265" height="63.981" id="box5_27"></rect></g>
		<g><rect x="1070.105" y="445.534" class="own" width="24.268" height="63.981" id="box5_28"></rect></g>
		<g><rect x="1097.362" y="445.534" class="own" width="24.268" height="63.981" id="box5_29"></rect></g>
		<g><rect x="1124.621" y="445.534" class="own" width="24.264" height="63.981" id="box5_30"></rect></g>
		<g><rect x="1042.85" y="513.023" class="own" width="24.265" height="63.982" id="box6_27"></rect></g>
		<g><rect x="1070.105" y="513.023" class="own" width="24.268" height="63.982" id="box6_28"></rect></g>
		<g><rect x="1097.362" y="513.023" class="own" width="24.268" height="63.982" id="box6_29"></rect></g>
		<g><rect x="1124.621" y="513.023" class="own" width="24.264" height="63.982" id="box6_30"></rect></g>
		<g><rect x="1042.85" y="580.52" class="own" width="24.265" height="63.98" id="box7_24"></rect></g>
		<g><rect x="1070.105" y="580.52" class="own" width="24.268" height="63.98" id="box7_25"></rect></g>
		<g><rect x="1097.362" y="580.52" class="own" width="24.268" height="63.98" id="box7_26"></rect></g>
		<g><rect x="1124.621" y="580.52" class="own" width="24.264" height="63.98" id="box7_27"></rect></g>
		<g><rect x="1042.85" y="648.01" class="own" width="24.265" height="63.98" id="box8_24"></rect></g>
		<g><rect x="1070.105" y="648.01" class="own" width="24.268" height="63.98" id="box8_25"></rect></g>
		<g><rect x="1097.362" y="648.01" class="own" width="24.268" height="63.98" id="box8_26"></rect></g>
		<g><rect x="1124.621" y="648.01" class="own" width="24.264" height="63.98" id="box8_27"></rect></g>
	</g>
	<g>
		<g><rect x="1169.366" y="445.534" class="own" width="24.267" height="63.981" id="box5_31"></rect></g>
		<g><rect x="1196.623" y="445.534" class="own" width="24.268" height="63.981" id="box5_32"></rect></g>
		<g><rect x="1223.88" y="445.534" class="own" width="24.269" height="63.981" id="box5_33"></rect></g>
		<g><rect x="1251.139" y="445.534" class="own" width="24.264" height="63.981" id="box5_34"></rect></g>
		<g><rect x="1169.366" y="513.023" class="own" width="24.267" height="63.982" id="box6_31"></rect></g>
		<g><rect x="1196.623" y="513.023" class="own" width="24.268" height="63.982" id="box6_32"></rect></g>
		<g><rect x="1223.88" y="513.023" class="own" width="24.269" height="63.982" id="box6_33"></rect></g>
		<g><rect x="1251.139" y="513.023" class="own" width="24.264" height="63.982" id="box6_34"></rect></g>
		<g><rect x="1169.366" y="580.52" class="own" width="24.267" height="63.98" id="box7_28"></rect></g>
		<g><rect x="1196.623" y="580.52" class="own" width="24.268" height="63.98" id="box7_29"></rect></g>
		<g><rect x="1223.88" y="580.52" class="own" width="24.269" height="63.98" id="box7_30"></rect></g>
		<g><rect x="1251.139" y="580.52" class="own" width="24.264" height="63.98" id="box7_31"></rect></g>
		<g><rect x="1169.366" y="648.01" class="own" width="24.267" height="63.98" id="box8_28"></rect></g>
		<g><rect x="1196.623" y="648.01" class="own" width="24.268" height="63.98" id="box8_29"></rect></g>
		<g><rect x="1223.88" y="648.01" class="own" width="24.269" height="63.98" id="box8_30"></rect></g>
		<g><rect x="1251.139" y="648.01" class="own" width="24.264" height="63.98" id="box8_31"></rect></g>
	</g>
	<g>
		<g><rect x="1295.885" y="445.534" class="own" width="24.264" height="63.981" id="box5_35"></rect></g>
		<g><rect x="1323.141" y="445.534" class="own" width="24.268" height="63.981" id="box5_36"></rect></g>
		<g><rect x="1350.398" y="445.534" class="own" width="24.268" height="63.981" id="box5_37"></rect></g>
		<g><rect x="1377.654" y="445.534" class="own" width="24.269" height="63.981" id="box5_38"></rect></g>
		<g><rect x="1295.885" y="513.023" class="own" width="24.264" height="63.982" id="box6_35"></rect></g>
		<g><rect x="1323.141" y="513.023" class="own" width="24.268" height="63.982" id="box6_36"></rect></g>
		<g><rect x="1350.398" y="513.023" class="own" width="24.268" height="63.982" id="box6_37"></rect></g>
		<g><rect x="1377.654" y="513.023" class="own" width="24.269" height="63.982" id="box6_38"></rect></g>
		<g><rect x="1295.885" y="580.52" class="own" width="24.264" height="63.98" id="box7_32"></rect></g>
		<g><rect x="1323.141" y="580.52" class="own" width="24.268" height="63.98" id="box7_33"></rect></g>
		<g><rect x="1350.398" y="580.52" class="own" width="24.268" height="63.98" id="box7_34"></rect></g>
		<g><rect x="1377.654" y="580.52" class="target" width="24.269" height="63.98" id="box7_35"></rect></g>
		<g><rect x="1295.885" y="648.01" class="own" width="24.264" height="63.98" id="box8_32"></rect></g>
		<g><rect x="1323.141" y="648.01" class="own" width="24.268" height="63.98" id="box8_33"></rect></g>
		<g><rect x="1350.398" y="648.01" class="own" width="24.268" height="63.98" id="box8_34"></rect></g>
		<g><rect x="1377.654" y="648.01" class="own" width="24.269" height="63.98" id="box8_35"></rect></g>
	</g>
	<g>
		<g><rect x="1422.402" y="445.534" class="own" width="24.267" height="63.981" id="box5_39"></rect></g>
		<g><rect x="1449.66" y="445.534" class="own" width="24.265" height="63.981" id="box5_40"></rect></g>
		<g><rect x="1476.919" y="445.534" class="own" width="24.264" height="63.981" id="box5_41"></rect></g>
		<g><rect x="1504.173" y="445.534" class="own" width="24.268" height="63.981" id="box5_42"></rect></g>
		<g><rect x="1422.402" y="513.023" class="own" width="24.267" height="63.982" id="box6_39"></rect></g>
		<g><rect x="1449.66" y="513.023" class="own" width="24.265" height="63.982" id="box6_40"></rect></g>
		<g><rect x="1476.919" y="513.023" class="own" width="24.264" height="63.982" id="box6_41"></rect></g>
		<g><rect x="1504.173" y="513.023" class="own" width="24.268" height="63.982" id="box6_42"></rect></g>
		<g><rect x="1422.402" y="580.52" class="own" width="24.267" height="63.98" id="box7_36"></rect></g>
		<g><rect x="1449.66" y="580.52" class="own" width="24.265" height="63.98" id="box7_37"></rect></g>
		<g><rect x="1476.919" y="580.52" class="own" width="24.264" height="63.98" id="box7_38"></rect></g>
		<g><rect x="1504.173" y="580.52" class="own" width="24.268" height="63.98" id="box7_39"></rect></g>
		<g><rect x="1422.402" y="648.01" class="own" width="24.267" height="63.98" id="box8_36"></rect></g>
		<g><rect x="1449.66" y="648.01" class="own" width="24.265" height="63.98" id="box8_37"></rect></g>
		<g><rect x="1476.919" y="648.01" class="own" width="24.264" height="63.98" id="box8_38"></rect></g>
		<g><rect x="1504.173" y="648.01" class="own" width="24.268" height="63.98" id="box8_39"></rect></g>
	</g>
	<g>
		<g><rect x="1548.919" y="445.534" class="default" width="24.268" height="63.981" id="box5_43"></rect></g>
		<g><rect x="1576.175" y="445.534" class="default" width="24.269" height="63.981" id="box5_44"></rect></g>
		<g><rect x="1603.435" y="445.534" class="default" width="24.266" height="63.981" id="box5_45"></rect></g>
		<g><rect x="1630.689" y="445.534" class="default" width="24.269" height="63.981" id="box5_46"></rect></g>
		<g><rect x="1548.919" y="513.023" class="default" width="24.268" height="63.982" id="box6_43"></rect></g>
		<g><rect x="1576.175" y="513.023" class="default" width="24.269" height="63.982" id="box6_44"></rect></g>
		<g><rect x="1603.435" y="513.023" class="default" width="24.266" height="63.982" id="box6_45"></rect></g>
		<g><rect x="1630.689" y="513.023" class="default" width="24.269" height="63.982" id="box6_46"></rect></g>
		<g><rect x="1548.919" y="580.52" class="default" width="24.268" height="63.98" id="box7_40"></rect></g>
		<g><rect x="1576.175" y="580.52" class="default" width="24.269" height="63.98" id="box7_41"></rect></g>
		<g><rect x="1603.435" y="580.52" class="default" width="24.266" height="63.98" id="box7_42"></rect></g>
		<g><rect x="1630.689" y="580.52" class="default" width="24.269" height="63.98" id="box7_43"></rect></g>
		<g><rect x="1548.919" y="648.01" class="default" width="24.268" height="63.98" id="box8_40"></rect></g>
		<g><rect x="1576.175" y="648.01" class="default" width="24.269" height="63.98" id="box8_41"></rect></g>
		<g><rect x="1603.435" y="648.01" class="default" width="24.266" height="63.98" id="box8_42"></rect></g>
		<g><rect x="1630.689" y="648.01" class="default" width="24.269" height="63.98" id="box8_43"></rect></g>
	</g>
	<g>
		<g><rect x="1658.809" y="445.534" class="default" width="24.266" height="63.981" id="box5_47"></rect></g>
		<g><rect x="1713.323" y="445.534" class="default" width="24.265" height="63.981" id="box5_48"></rect></g>
		<g><rect x="1740.58" y="445.534" class="default" width="24.267" height="63.981" id="box5_49"></rect></g>
		<g><rect x="1658.809" y="513.023" class="default" width="24.266" height="63.982" id="box6_47"></rect></g>
		<g><rect x="1713.323" y="513.023" class="default" width="24.265" height="63.982" id="box6_48"></rect></g>
		<g><rect x="1740.58" y="513.023" class="default" width="24.267" height="63.982" id="box6_49"></rect></g>
	</g>
	<g>
		<g>
			<g><rect x="1768.934" y="445.534" class="default" width="24.266" height="63.981" id="box5_50"></rect></g>
			<g><rect x="1823.448" y="445.534" class="default" width="24.265" height="63.981" id="box5_51"></rect></g>
			<g><rect x="1850.705" y="445.534" class="default" width="24.267" height="63.981" id="box5_52"></rect></g>
			<g><rect x="1823.448" y="513.023" class="default" width="24.265" height="63.982" id="box6_50"></rect></g>
		</g>
	</g>
	<g>
		<g>
			<g><rect x="1548.919" y="205.162" class="default" width="24.268" height="63.981" id="box1_36"></rect></g>
			<g><rect x="1548.919" y="272.658" class="etc" width="24.268" height="63.98" id="box2_38"></rect></g>
			<g><rect x="1548.919" y="340.147" class="default" width="24.268" height="63.981" id="box3_39"></rect></g>
			<g><rect x="1576.175" y="340.147" class="default" width="24.269" height="63.981" id="box3_40"></rect></g>
			<g><rect x="1603.435" y="340.147" class="default" width="24.266" height="63.981" id="box3_41"></rect></g>
			<g><rect x="1630.689" y="340.147" class="default" width="24.269" height="63.981" id="box3_42"></rect></g>
		</g>
	</g>
</g>
</svg>
